<?xml version="1.0" encoding="UTF-8" standalone="no"?>
<svg width="254px" height="140px" viewBox="0 0 254 140" version="1.1" xmlns="http://www.w3.org/2000/svg" xmlns:xlink="http://www.w3.org/1999/xlink">
    <!-- Generator: Sketch Beta 3.8 (29658) - http://www.bohemiancoding.com/sketch -->
    <title>logo</title>
    <desc>Created with Sketch Beta.</desc>
    <defs></defs>
    <g id="Page-1" stroke="none" stroke-width="1" fill="none" fill-rule="evenodd">
        <g id="logo" fill="#E46A35">
            <polyline id="Fill-1" points="28.4793939 28.4972121 28.4793939 50.4492121 16.3732121 50.4492121 16.3732121 28.4972121 0 0.67369697 14.4047273 0.67369697 22.5374545 15.9506667 30.4495758 0.67369697 44.5989091 0.67369697 28.4793939 28.4972121"></polyline>
            <path d="M55.0556364,24.5212121 C52.5288485,24.5212121 50.4967273,25.3832727 48.9652121,27.1090909 C47.6050909,28.6414545 46.9254545,30.6591515 46.9254545,33.1638788 C46.9254545,35.8849697 47.7255758,38.0121212 49.3317576,39.5436364 C50.9107879,41.0530909 52.7952727,41.8048485 54.9809697,41.8048485 C57.4619394,41.8048485 59.5271515,40.8706667 61.1825455,38.9980606 C62.3984242,37.6362424 63.0067879,35.7526061 63.0067879,33.3446061 C63.0067879,30.4538182 62.2516364,28.2418182 60.7430303,26.7094545 C59.2853333,25.2500606 57.3906667,24.5212121 55.0556364,24.5212121 L55.0556364,24.5212121 Z M55.0921212,14.4581818 C61.0730909,14.4581818 65.9086061,16.5098182 69.6029091,20.6198788 C72.8144242,24.1682424 74.4180606,28.4709091 74.4180606,33.5287273 C74.4180606,36.4441212 73.7358788,39.2025455 72.3766061,41.8048485 C70.6015758,45.1843636 67.9772121,47.7722424 64.4984242,49.5718788 C61.6067879,51.0787879 58.409697,51.8330909 54.909697,51.8330909 C50.874303,51.8330909 47.2173333,50.8242424 43.9362424,48.8073939 C40.8969697,46.9593939 38.6595152,44.406303 37.2255758,41.1481212 C36.1293333,38.6917576 35.5854545,36.0436364 35.5854545,33.1978182 C35.5854545,27.1218182 37.7363636,22.3092121 42.0381818,18.7608485 C45.4906667,15.8921212 49.8408485,14.4581818 55.0921212,14.4581818 L55.0921212,14.4581818 Z" id="Fill-2"></path>
            <path d="M99.9922424,15.8420606 L111.330545,15.8420606 L111.330545,37.6107879 C111.330545,41.2346667 110.724727,43.9676364 109.508,45.8139394 C106.858182,49.8281212 102.166909,51.8330909 95.4350303,51.8330909 C90.0836364,51.8330909 85.9778182,50.5569697 83.1073939,48.0038788 C80.5780606,45.7689697 79.3155152,42.3037576 79.3155152,37.6107879 L79.3155152,15.8420606 L90.6572121,15.8420606 L90.6572121,36.8081212 C90.6572121,38.024 90.8396364,39.0574545 91.2027879,39.9076364 C91.5684848,40.7340606 92.1870303,41.3814545 93.0635152,41.8413333 C93.7915152,42.2316364 94.5797576,42.4250909 95.4350303,42.4250909 C97.158303,42.4250909 98.448,41.7547879 99.2981818,40.4184242 C99.7606061,39.6895758 99.9922424,38.7426667 99.9922424,37.576 L99.9922424,15.8420606" id="Fill-3"></path>
            <path d="M117.42097,15.8420606 L128.76097,15.8420606 L128.76097,19.7807273 C129.807152,17.9564848 130.850788,16.7058182 131.89697,16.0236364 C133.453091,14.9791515 135.362182,14.4581818 137.622545,14.4581818 C141.268485,14.4581818 144.207636,15.5756364 146.448485,17.8105455 C147.829818,19.1978182 148.708,20.8006061 149.071152,22.6273939 C149.436,24.4482424 149.617576,26.6500606 149.617576,29.2252121 L149.617576,50.4492121 L138.276727,50.4492121 L138.276727,29.3338182 C138.276727,27.973697 138.059515,26.9156364 137.622545,26.1638788 C136.770667,24.6315152 135.421576,23.8627879 133.575273,23.8627879 C131.798545,23.8627879 130.461333,24.6052121 129.565333,26.0875152 C129.026545,26.9410909 128.76097,28.0695758 128.76097,29.4806061 L128.76097,50.4492121 L117.42097,50.4492121 L117.42097,15.8420606" id="Fill-4"></path>
            <path d="M174.374667,24.4821818 C171.507636,24.4821818 169.293939,25.5784242 167.739515,27.7675152 C166.69503,29.2252121 166.171515,30.9620606 166.171515,32.9814545 C166.171515,35.729697 167.048,37.9518788 168.796727,39.6530909 C170.279879,41.1107879 172.202545,41.8413333 174.558788,41.8413333 C177.208606,41.8413333 179.321333,40.9436364 180.902909,39.142303 C181.901576,38.0010909 182.397091,36.3219394 182.397091,34.1107879 C182.397091,30.6591515 181.558788,28.1552727 179.88303,26.5991515 C178.350667,25.1915152 176.516242,24.4821818 174.374667,24.4821818 L174.374667,24.4821818 Z M182.579515,19.3420606 L182.579515,15.8420606 L193.66497,15.8420606 L193.66497,46.6547879 C193.66497,51.8814545 192.985333,55.7836364 191.624364,58.3613333 C190.041939,61.3734545 187.576242,63.6847273 184.222182,65.2883636 C181.159152,66.724 177.730424,67.4409697 173.937697,67.4409697 C167.082788,67.4409697 161.12897,65.0567273 156.071152,60.2941818 L162.926909,53.2916364 C165.795636,56.4530909 169.272727,58.0304242 173.355636,58.0304242 C176.320242,58.0304242 178.580606,57.1793939 180.136727,55.4798788 C181.765818,53.7286061 182.579515,51.3604848 182.579515,48.3678788 L182.579515,46.6547879 C179.495273,50.1081212 175.520121,51.8330909 170.655758,51.8330909 C167.593576,51.8330909 164.738424,51.017697 162.086909,49.3911515 C156.740606,46.0846061 154.066182,40.7841212 154.066182,33.4913939 C154.066182,29.9667879 154.806909,26.6602424 156.290061,23.5700606 C157.723152,20.634303 159.837576,18.3586667 162.633333,16.7524848 C165.334909,15.2235152 168.420848,14.4581818 171.897091,14.4581818 C176.320242,14.4581818 179.88303,16.0838788 182.579515,19.3420606 L182.579515,19.3420606 Z" id="Fill-5"></path>
            <path d="M39.7667879,100.580242 L46.9127273,109.004 C44.2875152,111.216848 41.8549091,112.808606 39.6208485,113.78097 C36.1675152,115.310788 32.3875152,116.079515 28.2808485,116.079515 C20.6699394,116.079515 14.5930909,113.563758 10.0469091,108.531394 C7.54387879,105.784848 5.70945455,102.501212 4.54278788,98.6838788 C3.71466667,95.9636364 3.30145455,93.1695758 3.30145455,90.2966061 C3.30145455,85.3372121 4.47915152,80.7307879 6.83793939,76.4781818 C9.24424242,72.1517576 12.5762424,68.9300606 16.8288485,66.8139394 C20.1846061,65.1602424 24.1215758,64.3363636 28.6431515,64.3363636 C32.9466667,64.3363636 36.8615758,65.1602424 40.3861818,66.8139394 C42.5718788,67.8363636 44.941697,69.5392727 47.4973333,71.9218182 L39.7667879,79.9790303 C36.3380606,77.0135758 32.7761212,75.5295758 29.0818182,75.5295758 C24.9013333,75.5295758 21.5549091,76.9524848 19.0535758,79.7949091 C16.7202424,82.4710303 15.5544242,85.8598788 15.5544242,89.9699394 C15.5544242,93.0558788 16.2832727,95.8533333 17.7435152,98.3580606 C18.9313939,100.399515 20.5859394,101.989576 22.6986667,103.133333 C24.8648485,104.300848 27.2329697,104.882909 29.8132121,104.882909 C31.8512727,104.882909 33.7722424,104.506182 35.5718788,103.752727 C37.0304242,103.121455 38.4287273,102.063394 39.7667879,100.580242" id="Fill-6"></path>
            <path d="M68.7060606,89.1672727 C66.1775758,89.1672727 64.1488485,90.0310303 62.6156364,91.7568485 C61.2538182,93.2875152 60.5724848,95.3052121 60.5724848,97.8090909 C60.5724848,100.53103 61.376,102.65903 62.9838788,104.191394 C64.5595152,105.698303 66.445697,106.450909 68.6330909,106.450909 C71.1140606,106.450909 73.1792727,105.516727 74.8312727,103.643273 C76.0471515,102.283152 76.6555152,100.399515 76.6555152,97.9915152 C76.6555152,95.0990303 75.9020606,92.8878788 74.3934545,91.3572121 C72.9366061,89.8969697 71.0410909,89.1672727 68.7060606,89.1672727 L68.7060606,89.1672727 Z M68.7425455,79.1042424 C74.7235152,79.1042424 79.5590303,81.1575758 83.2558788,85.2642424 C86.4648485,88.8168485 88.0667879,93.1161212 88.0667879,98.1747879 C88.0667879,101.091879 87.388,103.849455 86.0270303,106.450909 C84.250303,109.831273 81.6259394,112.418303 78.1522424,114.218788 C75.2555152,115.725697 72.0635152,116.476606 68.5601212,116.476606 C64.5230303,116.476606 60.8660606,115.471152 57.5849697,113.452606 C54.545697,111.605455 52.3099394,109.053212 50.874303,105.795879 C49.782303,103.339515 49.2341818,100.690545 49.2341818,97.8455758 C49.2341818,91.7670303 51.3867879,86.9569697 55.6886061,83.4077576 C59.1393939,80.5373333 63.4929697,79.1042424 68.7425455,79.1042424 L68.7425455,79.1042424 Z" id="Fill-7"></path>
            <polygon id="Fill-8" points="92.8717576 115.095273 104.213455 115.095273 104.213455 65.3206061 92.8717576 65.3206061"></polygon>
            <polygon id="Fill-9" points="5.77733333 139.151515 253.669818 139.151515 253.669818 127.809818 5.77733333 127.809818"></polygon>
            <path d="M126.111152,89.8969697 L126.111152,115.095273 L113.92097,115.095273 L113.92097,89.8969697 L111.344121,89.8969697 L111.344121,80.4872727 L114.769455,80.4872727 L114.769455,79.9060606 C114.769455,72.9052121 117.129091,68.4549091 121.845818,66.557697 C123.91103,65.7338182 126.672,65.3206061 130.123636,65.3206061 L130.123636,75.822303 C127.447515,76.1379394 126.111152,77.4997576 126.111152,79.9060606 L126.111152,80.4872727 L130.123636,80.4872727 L130.123636,89.8969697 L126.111152,89.8969697" id="Fill-10"></path>
            <path d="M137.984,115.095273 L149.323152,115.095273 L149.323152,80.4872727 L137.984,80.4872727 L137.984,115.095273 Z M143.707879,61.2572121 C145.505818,61.2572121 146.964364,61.8647273 148.083515,63.082303 C149.152606,64.2498182 149.687152,65.6854545 149.687152,67.3824242 C149.687152,69.2295758 148.994788,70.7517576 147.609212,71.9438788 C146.566424,72.8661818 145.250424,73.3277576 143.673091,73.3277576 C141.823394,73.3277576 140.340242,72.7210909 139.221939,71.5035152 C138.154545,70.3368485 137.619152,68.9410909 137.619152,67.312 C137.619152,65.3918788 138.311515,63.8349091 139.697091,62.6444848 C140.741576,61.7213333 142.078788,61.2572121 143.707879,61.2572121 L143.707879,61.2572121 Z" id="Fill-11"></path>
            <path d="M180.571152,94.1996364 C180.256364,92.6443636 179.625091,91.4166061 178.676485,90.5180606 C177.191636,89.178303 175.332606,88.5088485 173.098545,88.5088485 C170.933212,88.5088485 169.159879,89.1672727 167.774303,90.4790303 C166.799394,91.4072727 166.157091,92.6443636 165.838909,94.1996364 L180.571152,94.1996364 L180.571152,94.1996364 Z M192.130061,100.217091 L165.950909,100.217091 C166.264848,101.819879 166.897818,103.097697 167.845576,104.046303 C169.426303,105.649939 171.418545,106.450909 173.826545,106.450909 C175.526909,106.450909 177.069455,106.002909 178.456727,105.103515 C179.378182,104.518909 180.110424,103.693333 180.647515,102.621697 L191.109333,105.285939 C189.600727,108.276 187.741697,110.634788 185.531394,112.358061 C182.029697,115.108 178.06897,116.476606 173.644121,116.476606 C170.046545,116.476606 166.680606,115.642545 163.543758,113.964242 C160.748,112.458182 158.535152,110.401455 156.906061,107.802545 C155.104727,104.908364 154.208727,101.516121 154.208727,97.6283636 C154.208727,94.2471515 154.960485,91.113697 156.469091,88.2186667 C158.07103,85.1556364 160.346667,82.8715152 163.290061,81.3646061 C166.157091,79.856 169.389818,79.1042424 172.985697,79.1042424 C176.365212,79.1042424 179.489333,79.8084848 182.358909,81.2186667 C185.955636,82.9928485 188.593576,85.7164848 190.27103,89.3853333 C191.535273,92.230303 192.169939,95.3552727 192.169939,98.7568485 C192.169939,99.0495758 192.154667,99.5357576 192.130061,100.217091 L192.130061,100.217091 Z" id="Fill-12"></path>
            <polygon id="Fill-13" points="197.88703 115.095273 209.228727 115.095273 209.228727 65.3206061 197.88703 65.3206061"></polygon>
            <path d="M234.032485,88.5088485 C231.069576,88.5088485 228.77103,89.7993939 227.141939,92.3770909 C226.097455,94.078303 225.575636,96.0238788 225.575636,98.2078788 C225.575636,101.00703 226.425818,103.267394 228.127879,104.994061 C229.806182,106.696121 231.784848,107.546303 234.072364,107.546303 C236.743394,107.546303 238.849333,106.428848 240.379152,104.191394 C241.618788,102.440121 242.23903,100.447879 242.23903,98.2078788 C242.23903,95.509697 241.486424,93.2281212 239.978667,91.3572121 C238.445455,89.4608485 236.465091,88.5088485 234.032485,88.5088485 L234.032485,88.5088485 Z M242.23903,83.6614545 L242.23903,65.3206061 L253.580727,65.3206061 L253.580727,115.095273 L242.23903,115.095273 L242.23903,111.230424 C240.90097,113.077576 239.552727,114.326545 238.193455,114.98497 C236.171515,115.981091 233.803394,116.476606 231.080606,116.476606 C225.441576,116.476606 220.980242,114.607394 217.699152,110.864727 C214.878788,107.606545 213.467758,103.377697 213.467758,98.1747879 C213.467758,92.1692121 215.365818,87.4312727 219.156848,83.9533333 C222.729818,80.7197576 226.752485,79.1042424 231.226545,79.1042424 C233.368121,79.1042424 235.407879,79.4818182 237.351758,80.2335758 C238.934182,80.8682424 240.561576,82.0077576 242.23903,83.6614545 L242.23903,83.6614545 Z" id="Fill-14"></path>
        </g>
    </g>
</svg>